<svg xmlns="http://www.w3.org/2000/svg" viewBox="0 0 627.75 179.26"><g id="Слой_2" data-name="Слой 2"><g id="Слой_1-2" data-name="Слой 1"><path d="M83.8,40.45v31c-4.69,3.24-14.91,9.16-33,9.16-27,0-46.32-17.54-46.32-40.22S23.79,0,51.14,0c17.38,0,26.5,5.59,29.7,7.49L73.32,19.78c-2.22-1.34-9.48-5.37-21.44-5.37-17.12,0-29.81,10.28-29.81,25.93s13.3,26.37,29.69,26.37a40.05,40.05,0,0,0,16-3V40.45Z"/><path d="M159.45,66V79.56h-58.9V1h17V66Z"/><path d="M162.41,40.45C162.41,17.66,181.75,0,208.24,0c26.25,0,45.34,17.21,45.34,40.45,0,23-19.09,40.11-45.34,40.11C181.75,80.56,162.41,63.13,162.41,40.45Zm73.8,0c0-15-12-26.15-28-26.15-16.39,0-28.46,11.29-28.46,26.15s12.07,25.92,28.46,25.92C224.26,66.37,236.21,55.31,236.21,40.45Z"/><path d="M344.39,79.56l-.74-47.16-23.9,38h-10.6l-23.41-38-.86,47.16H268.25L271,1h10.72l32.77,51.62L348,1h10.59l2.59,78.55Z"/><path d="M432.12,64.36H395l-6.9,15.2h-18L408.09,1h11.22L457,79.56H439ZM400.45,51.29H426.7L413.64,22.91Z"/><path d="M516.15,79.56,499.27,57.1H484.36V79.56h-17V1h30.92c21.07,0,35.12,10.83,35.12,28.38,0,11.17-6.28,19.66-17,24.25l19.83,25.92Zm-31.79-36h12.45c11.46,0,19-5.59,19-14.19,0-9.39-7.64-14.86-18.85-14.86H484.36Z"/><path d="M602,79.56,566.79,46.71V79.56h-17V1h17V35L601.66,1h20.21L581.7,39.67l42.51,39.89Z"/><path d="M3.78,118.07v20H31.59v3.15H3.78v21H35.53v3.07H0V115H35.53v3.07Z"/><path d="M70.73,165.3,58.52,151.06,46.22,165.3H41.64l14.55-16.53L42,132.39h4.58l12.14,14,12-14h4.51L61,148.7,75.4,165.3Z"/><path d="M121.13,148.85c0,9.8-7.8,17.1-17.84,17.1-7.72,0-12.94-3.65-15.44-7.94v21.25H84.24V132.39h3.37l.08,7.3c2.57-4.44,7.8-7.95,15.52-7.95C113.25,131.74,121.13,139,121.13,148.85Zm-3.7,0c0-8.09-6.75-14-14.71-14-8.84,0-14.87,5.87-14.87,14s6,14,14.87,14C110.68,162.87,117.43,156.93,117.43,148.85Z"/><path d="M128.76,148.92c0-9.81,8.61-17.11,19.06-17.11,10.28,0,19,7.3,19,17.11s-8.69,17-19,17C137.37,166,128.76,158.65,128.76,148.92Zm34.25,0c0-8-7.16-14-15.19-14s-15.28,6-15.28,14,7.16,14,15.28,14S163,156.86,163,148.92Z"/><path d="M196.6,132l-.32,3.29a11.85,11.85,0,0,0-3-.29c-8.68,0-12.38,6.51-12.46,11.31v19h-3.7V132.39h3.22l.24,7.58c1.37-4.29,5.87-8.23,13.26-8.23A14.13,14.13,0,0,1,196.6,132Z"/><path d="M206.49,155.14v-20h-7.56v-2.79h7.56l.08-11.31h3.62v11.31h16.16v2.79H210.19v19.89c0,5.65,4,7.87,9.16,7.87a13.16,13.16,0,0,0,7.72-2.5l1.53,2.5a15.67,15.67,0,0,1-9.81,3C212,166,206.49,162.08,206.49,155.14Z"/><path d="M253,162.23l1.93-2.72A21,21,0,0,0,267,163c6.19,0,10.13-2.36,10.13-6.15s-2.17-5.44-10-7c-8.45-1.72-12.71-4.15-12.71-9.31s5.23-8.73,12.87-8.73A23.35,23.35,0,0,1,279.8,135L278,137.61a22,22,0,0,0-11-2.86c-5.14,0-8.84,2.07-8.84,5.65,0,3.22,2.57,4.8,10.29,6.37,9.57,2,12.38,4.65,12.38,10S275.29,166,267,166A26.45,26.45,0,0,1,253,162.23Z"/><path d="M292.9,155.14v-20h-7.56v-2.79h7.56l.08-11.31h3.61v11.31h16.16v2.79H296.59v19.89c0,5.65,4,7.87,9.17,7.87a13.08,13.08,0,0,0,7.71-2.5l1.53,2.5a15.64,15.64,0,0,1-9.8,3C298.36,166,292.9,162.08,292.9,155.14Z"/><path d="M355.35,132.39V165.3h-3.29L351.9,158c-2.66,4.5-7.88,7.94-15.52,7.94-10.05,0-17.92-7.3-17.92-17.1s7.79-17.11,17.84-17.11c7.88,0,13.18,3.58,15.6,7.95l.16-7.3Zm-3.62,16.46c0-8.09-6-14-14.87-14-7.95,0-14.71,5.94-14.71,14s6.76,14,14.71,14C345.71,162.87,351.73,157,351.73,148.85Z"/><path d="M388,132l-.32,3.29a11.8,11.8,0,0,0-3-.29c-8.68,0-12.38,6.51-12.46,11.31v19h-3.7V132.39h3.22L372,140c1.36-4.29,5.87-8.23,13.26-8.23A14.13,14.13,0,0,1,388,132Z"/><path d="M397.87,155.14v-20h-7.56v-2.79h7.56l.08-11.31h3.62v11.31h16.16v2.79H401.57v19.89c0,5.65,4,7.87,9.16,7.87a13.13,13.13,0,0,0,7.72-2.5l1.53,2.5a15.67,15.67,0,0,1-9.81,3C403.34,166,397.87,162.08,397.87,155.14Z"/><path d="M423.51,162.23l1.93-2.72a21,21,0,0,0,12.14,3.5c6.19,0,10.13-2.36,10.13-6.15s-2.17-5.44-10-7c-8.44-1.72-12.7-4.15-12.7-9.31s5.22-8.73,12.86-8.73A23.35,23.35,0,0,1,450.36,135l-1.77,2.58a21.92,21.92,0,0,0-11-2.86c-5.15,0-8.84,2.07-8.84,5.65,0,3.22,2.57,4.8,10.28,6.37,9.57,2,12.38,4.65,12.38,10S445.86,166,437.58,166A26.46,26.46,0,0,1,423.51,162.23Z"/><path d="M515.79,147.06V165.3h-3.7V147.41c0-7.58-5.15-12.66-12.78-12.59-8.36,0-12.62,5.72-13.19,10.38L486,165.3h-3.69V114.21H486v24.9c1.93-3.93,6.84-7.37,13.91-7.37C509.44,131.74,515.79,137.82,515.79,147.06Z"/><path d="M560.64,149.85H529.21c.56,7.8,7.15,13.16,16,13.16a18.86,18.86,0,0,0,11.74-3.72l1.85,2.44A22.33,22.33,0,0,1,545,166c-11.33,0-19.37-7.16-19.37-17.1,0-9.67,7.39-17.11,18.41-17.11,9.72,0,16.72,6.37,16.72,16C560.72,149,560.64,149.85,560.64,149.85ZM529.29,147H557.1c-.08-7.58-5.79-12.3-13-12.3C536,134.68,530.17,139.76,529.29,147Z"/><path d="M590.22,132l-.33,3.29a11.8,11.8,0,0,0-3-.29c-8.68,0-12.38,6.51-12.46,11.31v19h-3.7V132.39H574l.24,7.58c1.37-4.29,5.87-8.23,13.26-8.23A14.31,14.31,0,0,1,590.22,132Z"/><path d="M627.67,149.85H596.24c.57,7.8,7.16,13.16,16,13.16A18.88,18.88,0,0,0,624,159.29l1.84,2.44A22.28,22.28,0,0,1,612,166c-11.34,0-19.37-7.16-19.37-17.1,0-9.67,7.39-17.11,18.4-17.11,9.73,0,16.72,6.37,16.72,16C627.75,149,627.67,149.85,627.67,149.85ZM596.32,147h27.82c-.08-7.58-5.79-12.3-13-12.3C603,134.68,597.21,139.76,596.32,147Z"/></g></g></svg>